<svg width="28" height="28" viewBox="0 0 28 28" fill="none" xmlns="http://www.w3.org/2000/svg">
<path d="M19.0696 10.4542L15.5225 14L19.0696 17.5458C19.1697 17.6458 19.249 17.7646 19.3032 17.8953C19.3573 18.0261 19.3852 18.1662 19.3852 18.3077C19.3852 18.4492 19.3573 18.5893 19.3032 18.72C19.249 18.8508 19.1697 18.9696 19.0696 19.0696C18.9696 19.1697 18.8508 19.249 18.72 19.3032C18.5893 19.3573 18.4492 19.3852 18.3077 19.3852C18.1662 19.3852 18.0261 19.3573 17.8953 19.3032C17.7646 19.249 17.6458 19.1697 17.5458 19.0696L14 15.5225L10.4542 19.0696C10.3542 19.1697 10.2354 19.249 10.1047 19.3032C9.97393 19.3573 9.83381 19.3852 9.69231 19.3852C9.55081 19.3852 9.41069 19.3573 9.27996 19.3032C9.14923 19.249 9.03045 19.1697 8.93039 19.0696C8.83033 18.9696 8.75096 18.8508 8.69681 18.72C8.64266 18.5893 8.61479 18.4492 8.61479 18.3077C8.61479 18.1662 8.64266 18.0261 8.69681 17.8953C8.75096 17.7646 8.83033 17.6458 8.93039 17.5458L12.4775 14L8.93039 10.4542C8.72831 10.2522 8.61479 9.97808 8.61479 9.69231C8.61479 9.40653 8.72831 9.13246 8.93039 8.93038C9.13246 8.72831 9.40654 8.61478 9.69231 8.61478C9.97809 8.61478 10.2522 8.72831 10.4542 8.93038L14 12.4775L17.5458 8.93038C17.6458 8.83033 17.7646 8.75096 17.8953 8.69681C18.0261 8.64265 18.1662 8.61478 18.3077 8.61478C18.4492 8.61478 18.5893 8.64265 18.72 8.69681C18.8508 8.75096 18.9696 8.83033 19.0696 8.93038C19.1697 9.03044 19.249 9.14922 19.3032 9.27996C19.3573 9.41069 19.3852 9.5508 19.3852 9.69231C19.3852 9.83381 19.3573 9.97393 19.3032 10.1047C19.249 10.2354 19.1697 10.3542 19.0696 10.4542ZM28 14C28 16.7689 27.1789 19.4757 25.6406 21.778C24.1022 24.0803 21.9157 25.8747 19.3576 26.9343C16.7994 27.9939 13.9845 28.2712 11.2687 27.731C8.55301 27.1908 6.05845 25.8574 4.10051 23.8995C2.14258 21.9416 0.809205 19.447 0.269012 16.7313C-0.271181 14.0155 0.00606596 11.2006 1.06569 8.64243C2.12532 6.08427 3.91973 3.89776 6.22202 2.35943C8.52431 0.821086 11.2311 0 14 0C17.7118 0.00391976 21.2705 1.48017 23.8952 4.10483C26.5198 6.72949 27.9961 10.2882 28 14ZM25.8462 14C25.8462 11.6571 25.1514 9.36672 23.8497 7.41863C22.548 5.47054 20.6979 3.95219 18.5333 3.05558C16.3687 2.15897 13.9869 1.92438 11.6889 2.38147C9.39101 2.83855 7.28022 3.96679 5.62351 5.6235C3.9668 7.28022 2.83856 9.391 2.38147 11.6889C1.92439 13.9869 2.15898 16.3687 3.05559 18.5333C3.95219 20.6979 5.47054 22.548 7.41863 23.8497C9.36672 25.1514 11.6571 25.8461 14 25.8461C17.1407 25.8426 20.1517 24.5934 22.3726 22.3726C24.5934 20.1517 25.8426 17.1407 25.8462 14Z" fill="#848484"/>
</svg>
