<svg width="35" height="35" viewBox="0 0 35 35" fill="none" xmlns="http://www.w3.org/2000/svg">
<path fill-rule="evenodd" clip-rule="evenodd" d="M17.501 20.124C19.3575 20.124 21.138 19.3865 22.4507 18.0738C23.7635 16.761 24.501 14.9805 24.501 13.124C24.501 11.2675 23.7635 9.48703 22.4507 8.17428C21.138 6.86152 19.3575 6.12402 17.501 6.12402C15.6445 6.12402 13.864 6.86152 12.5512 8.17428C11.2385 9.48703 10.501 11.2675 10.501 13.124C10.501 14.9805 11.2385 16.761 12.5512 18.0738C13.864 19.3865 15.6445 20.124 17.501 20.124ZM17.501 18.374C18.1904 18.374 18.8731 18.2382 19.5101 17.9744C20.147 17.7106 20.7258 17.3238 21.2133 16.8363C21.7008 16.3488 22.0875 15.7701 22.3513 15.1331C22.6152 14.4962 22.751 13.8135 22.751 13.124C22.751 12.4346 22.6152 11.7519 22.3513 11.1149C22.0875 10.478 21.7008 9.89922 21.2133 9.41171C20.7258 8.92421 20.147 8.53749 19.5101 8.27366C18.8731 8.00982 18.1904 7.87402 17.501 7.87402C16.1086 7.87402 14.7732 8.42715 13.7887 9.41171C12.8041 10.3963 12.251 11.7316 12.251 13.124C12.251 14.5164 12.8041 15.8518 13.7887 16.8363C14.7732 17.8209 16.1086 18.374 17.501 18.374Z" fill="black"/>
<path fill-rule="evenodd" clip-rule="evenodd" d="M35 17.5C35 27.1652 27.1652 35 17.5 35C7.83475 35 0 27.1652 0 17.5C0 7.83475 7.83475 0 17.5 0C27.1652 0 35 7.83475 35 17.5ZM25.9263 30.8088C23.4071 32.4079 20.4839 33.2548 17.5 33.25C14.4446 33.2549 11.4544 32.3668 8.897 30.695C8.687 30.4325 8.47437 30.1613 8.25825 29.8813C8.00846 29.5531 7.87377 29.1518 7.875 28.7394C7.875 27.797 8.55225 27.0069 9.45788 26.8748C15.4472 25.9998 19.5711 26.075 25.5684 26.9054C26.0027 26.9683 26.3996 27.1863 26.6857 27.5191C26.9718 27.8518 27.1278 28.2769 27.125 28.7158C27.125 29.1357 26.9806 29.5435 26.7199 29.862C26.4512 30.1892 26.1861 30.5051 25.9263 30.8088ZM28.8619 28.4077C28.7219 26.7698 27.4785 25.403 25.8081 25.172C19.6691 24.3224 15.3781 24.241 9.205 25.1431C7.525 25.3881 6.28688 26.7671 6.13988 28.4095C3.31828 25.4792 1.74444 21.5679 1.75 17.5C1.75 8.80163 8.80163 1.75 17.5 1.75C26.1984 1.75 33.25 8.80163 33.25 17.5C33.2556 21.5671 31.6824 25.4776 28.8619 28.4077Z" fill="black"/>
</svg>
