<svg width="143" height="32" viewBox="0 0 143 32" fill="none" xmlns="http://www.w3.org/2000/svg">
<path d="M15.08 24.44L13.68 20.4C12.2933 20.4 10.8933 20.1867 9.48 19.76C9.18667 21.4667 9.04 22.6933 9.04 23.44C9.04 26.0267 9.44 27.96 10.24 29.24C8.64 30.44 6.97333 31.04 5.24 31.04C3.50667 31.04 2.26667 30.5467 1.52 29.56C0.773333 28.5467 0.4 27.0533 0.4 25.08C0.4 23.08 1.24 17.44 2.92 8.16L0.8 3.88C3.78667 1.96 6.53333 0.999999 9.04 0.999999C10.96 0.999999 12.44 1.4 13.48 2.2C15.48 1.4 17.28 0.999999 18.88 0.999999C21.3333 0.999999 23.28 1.82667 24.72 3.48C26.16 5.13333 26.88 7.12 26.88 9.44C26.88 11.1733 26.44 12.8533 25.56 14.48C24.68 16.08 23.3867 17.3867 21.68 18.4C22.5867 20.9867 23.6 23.2133 24.72 25.08C25.8667 26.9467 27 28.1867 28.12 28.8C27.56 29.3867 26.6933 29.8933 25.52 30.32C24.3733 30.7733 23.3333 31 22.4 31C20.5867 31 19.1333 30.5467 18.04 29.64C16.9467 28.7067 15.96 26.9733 15.08 24.44ZM11.24 15.4C13.3733 15.4 15.0267 14.8533 16.2 13.76C17.4 12.6667 18 11.4933 18 10.24C18 8.98667 17.6533 7.98667 16.96 7.24C16.2667 6.49333 15.28 6.12 14 6.12C13.3067 6.12 12.6133 6.21333 11.92 6.4C11.0667 11.4933 10.5333 14.48 10.32 15.36C10.5067 15.3867 10.8133 15.4 11.24 15.4ZM53.3016 17.72C53.3016 15.8533 53.7016 13.96 54.5016 12.04C55.3016 10.0933 56.4349 8.29333 57.9016 6.64C59.3682 4.98667 61.2749 3.64 63.6216 2.6C65.9949 1.53333 68.4349 0.999999 70.9416 0.999999C73.4749 0.999999 75.4482 1.46667 76.8616 2.4C78.3016 3.33333 79.0216 4.62667 79.0216 6.28C79.0216 7.93333 78.4749 9.22667 77.3816 10.16C76.3149 11.0667 75.0882 11.52 73.7016 11.52C72.3149 11.52 71.0616 11.2267 69.9416 10.64C68.8482 10.0267 67.9682 9.16 67.3016 8.04C65.8616 8.73333 64.6216 10.0933 63.5816 12.12C62.5416 14.1467 62.0216 16.1867 62.0216 18.24C62.0216 20.2667 62.3549 21.88 63.0216 23.08C63.6882 24.2533 64.6349 24.84 65.8616 24.84C67.0882 24.84 68.1682 24.2133 69.1016 22.96C70.0616 21.7067 70.5416 20.2 70.5416 18.44C73.2349 18.44 75.1549 18.6533 76.3016 19.08C77.4749 19.5067 78.0616 20.4267 78.0616 21.84C78.0616 24.0533 76.8616 26.1333 74.4616 28.08C72.0616 30.0267 69.0482 31 65.4216 31C61.7949 31 58.8616 29.88 56.6216 27.64C54.4082 25.4 53.3016 22.0933 53.3016 17.72ZM99.4463 24.84C99.4463 23.72 99.6329 21.88 100.006 19.32H90.9663C90.6196 21.32 90.4463 22.6933 90.4463 23.44C90.4463 26.0267 90.8463 27.96 91.6463 29.24C90.0463 30.44 88.3796 31.04 86.6463 31.04C84.9129 31.04 83.6729 30.5467 82.9263 29.56C82.1796 28.5467 81.8063 27.0533 81.8063 25.08C81.8063 23.08 82.6463 17.44 84.3263 8.16L82.2063 3.88C85.2196 1.93333 87.9663 0.96 90.4463 0.96C92.4996 0.96 93.5263 2.21333 93.5263 4.72C93.5263 5.46667 92.9663 8.74667 91.8463 14.56H100.806C100.913 13.8933 101.3 11.76 101.966 8.16L99.8463 3.88C102.86 1.93333 105.606 0.96 108.086 0.96C110.14 0.96 111.166 2.21333 111.166 4.72C111.166 5.54667 110.646 8.62667 109.606 13.96C108.593 19.2667 108.086 22.4267 108.086 23.44C108.086 26.0267 108.486 27.96 109.286 29.24C107.686 30.44 106.02 31.04 104.286 31.04C102.553 31.04 101.313 30.5467 100.566 29.56C99.8196 28.5467 99.4463 26.9733 99.4463 24.84ZM113.375 17.76C113.375 12.6933 114.788 8.64 117.615 5.6C120.442 2.53333 124.308 0.999999 129.215 0.999999C130.788 0.999999 131.908 1.32 132.575 1.96C133.268 2.57333 133.615 3.53333 133.615 4.84C133.615 5.02667 133.588 5.38666 133.535 5.92C134.522 5.12 135.615 4.72 136.815 4.72C138.442 4.72 139.828 5.45333 140.975 6.92C142.148 8.36 142.735 10.4533 142.735 13.2C142.735 15.9467 142.295 18.4667 141.415 20.76C140.535 23.0533 139.362 24.9333 137.895 26.4C136.455 27.8667 134.802 29 132.935 29.8C131.095 30.6 129.188 31 127.215 31C122.948 31 119.575 29.7867 117.095 27.36C114.615 24.9067 113.375 21.7067 113.375 17.76ZM133.335 19.64C131.628 17.56 130.775 15.32 130.775 12.92C130.775 10.52 131.308 8.58667 132.375 7.12C131.895 7.04 131.415 7 130.935 7C129.042 7 127.402 7.57333 126.015 8.72C123.402 10.8533 122.095 13.8133 122.095 17.6C122.095 19.76 122.575 21.56 123.535 23C124.495 24.44 125.828 25.16 127.535 25.16C128.842 25.16 130.028 24.6533 131.095 23.64C132.188 22.6 132.935 21.2667 133.335 19.64Z" fill="#6F00FF"/>
<path d="M34.3359 31.04C32.7626 31.04 31.6026 30.5467 30.8559 29.56C30.1093 28.5467 29.7359 27.0533 29.7359 25.08C29.7359 23.08 30.5759 17.44 32.2559 8.16L30.1359 3.88C33.1493 1.93333 35.8959 0.96 38.3759 0.96C39.9493 0.96 40.9226 1.70667 41.2959 3.2C44.3093 3.12 48.0693 2.44 52.5759 1.16C52.7893 2.04 52.8959 2.90667 52.8959 3.76C52.8959 5.92 52.1759 7.54666 50.7359 8.64C49.3226 9.73333 47.4959 10.28 45.2559 10.28C43.7359 10.28 42.2426 9.96 40.7759 9.32C40.5626 10.52 40.1893 12.48 39.6559 15.2C40.6426 15.3867 41.4826 15.48 42.1759 15.48C43.2693 15.2667 44.4693 14.96 45.7759 14.56C45.9093 15.0133 45.9759 15.76 45.9759 16.8C45.9759 17.8133 45.5626 18.6267 44.7359 19.24C43.9093 19.8533 42.9759 20.16 41.9359 20.16C40.9226 20.16 39.8826 20.04 38.8159 19.8C38.5226 21.48 38.3759 23.0667 38.3759 24.56H44.8559C46.8826 24.2667 48.9226 23.7467 50.9759 23C51.1359 23.48 51.2159 24.1333 51.2159 24.96C51.2159 26.5333 50.7493 27.9333 49.8159 29.16C48.9093 30.3867 47.6426 31 46.0159 31C45.1626 31 43.9093 30.8267 42.2559 30.48C40.6293 30.16 39.4159 29.96 38.6159 29.88C37.3359 30.6533 35.9093 31.04 34.3359 31.04Z" fill="#F543C4"/>
<path d="M15.08 24.44L14.1351 24.7674L14.1354 24.7681L15.08 24.44ZM13.68 20.4L14.6249 20.0726L14.3918 19.4H13.68V20.4ZM9.48 19.76L9.769 18.8027L8.68607 18.4757L8.49445 19.5906L9.48 19.76ZM10.24 29.24L10.84 30.04L11.5748 29.4889L11.088 28.71L10.24 29.24ZM1.52 29.56L0.714879 30.1532L0.722594 30.1634L1.52 29.56ZM2.92 8.16L3.90401 8.33814L3.96294 8.0126L3.8161 7.71614L2.92 8.16ZM0.8 3.88L0.259243 3.03882L-0.493059 3.52244L-0.0960959 4.32386L0.8 3.88ZM13.48 2.2L12.8703 2.99262L13.3221 3.34018L13.8514 3.12847L13.48 2.2ZM24.72 3.48L25.4741 2.82322L25.4741 2.82322L24.72 3.48ZM25.56 14.48L26.4362 14.9619L26.4395 14.9558L25.56 14.48ZM21.68 18.4L21.1695 17.5401L20.4655 17.9581L20.7363 18.7308L21.68 18.4ZM24.72 25.08L23.8625 25.5945L23.8679 25.6034L24.72 25.08ZM28.12 28.8L28.8434 29.4905L29.7426 28.5484L28.6003 27.9229L28.12 28.8ZM25.52 30.32L25.1783 29.3802L25.1652 29.3849L25.1523 29.39L25.52 30.32ZM18.04 29.64L17.3907 30.4006L17.3962 30.4052L17.4017 30.4098L18.04 29.64ZM16.2 13.76L15.5265 13.0208L15.5183 13.0284L16.2 13.76ZM16.96 7.24L17.6928 6.55955L17.6928 6.55955L16.96 7.24ZM11.92 6.4L11.66 5.43438L11.0399 5.60135L10.9337 6.23476L11.92 6.4ZM10.32 15.36L9.34815 15.1244L9.08879 16.1943L10.1786 16.3499L10.32 15.36ZM16.0249 24.1126L14.6249 20.0726L12.7351 20.7274L14.1351 24.7674L16.0249 24.1126ZM13.68 19.4C12.3974 19.4 11.0947 19.2029 9.769 18.8027L9.191 20.7173C10.692 21.1705 12.1893 21.4 13.68 21.4V19.4ZM8.49445 19.5906C8.20071 21.2997 8.04 22.6002 8.04 23.44H10.04C10.04 22.7864 10.1726 21.6337 10.4655 19.9294L8.49445 19.5906ZM8.04 23.44C8.04 26.0961 8.44464 28.2542 9.392 29.77L11.088 28.71C10.4354 27.6658 10.04 25.9573 10.04 23.44H8.04ZM9.64 28.44C8.18538 29.531 6.7247 30.04 5.24 30.04V32.04C7.22196 32.04 9.09462 31.349 10.84 30.04L9.64 28.44ZM5.24 30.04C3.68642 30.04 2.80689 29.6034 2.31741 28.9566L0.722594 30.1634C1.72644 31.49 3.32691 32.04 5.24 32.04V30.04ZM2.32506 28.9668C1.75869 28.1982 1.4 26.9528 1.4 25.08H-0.6C-0.6 27.1539 -0.212028 28.8952 0.714944 30.1532L2.32506 28.9668ZM1.4 25.08C1.4 24.1654 1.59766 22.3269 2.01909 19.4973C2.43689 16.6921 3.06483 12.9736 3.90401 8.33814L1.93599 7.98186C1.09517 12.6264 0.463107 16.3679 0.0409099 19.2027C-0.377663 22.0131 -0.6 23.9946 -0.6 25.08H1.4ZM3.8161 7.71614L1.6961 3.43614L-0.0960959 4.32386L2.0239 8.60386L3.8161 7.71614ZM1.34076 4.72118C4.23031 2.86361 6.78929 2 9.04 2V-9.53674e-07C6.27738 -9.53674e-07 3.34303 1.05639 0.259243 3.03882L1.34076 4.72118ZM9.04 2C10.8378 2 12.0697 2.37676 12.8703 2.99262L14.0897 1.40737C12.8103 0.423238 11.0822 -9.53674e-07 9.04 -9.53674e-07V2ZM13.8514 3.12847C15.7717 2.36034 17.443 2 18.88 2V-9.53674e-07C17.117 -9.53674e-07 15.1883 0.439659 13.1086 1.27152L13.8514 3.12847ZM18.88 2C21.0826 2 22.7397 2.72892 23.9659 4.13678L25.4741 2.82322C23.8203 0.924407 21.584 -9.53674e-07 18.88 -9.53674e-07V2ZM23.9659 4.13678C25.2376 5.59686 25.88 7.34616 25.88 9.44H27.88C27.88 6.89384 27.0824 4.66981 25.4741 2.82322L23.9659 4.13678ZM25.88 9.44C25.88 10.9961 25.4869 12.5136 24.6805 14.0042L26.4395 14.9558C27.3931 13.1931 27.88 11.3506 27.88 9.44H25.88ZM24.6838 13.9981C23.8972 15.4283 22.7365 16.6097 21.1695 17.5401L22.1905 19.2599C24.0369 18.1636 25.4628 16.7317 26.4362 14.9619L24.6838 13.9981ZM20.7363 18.7308C21.6599 21.3658 22.7 23.657 23.8625 25.5945L25.5775 24.5655C24.5 22.7697 23.5134 20.6075 22.6237 18.0692L20.7363 18.7308ZM23.8679 25.6034C25.0486 27.5255 26.2938 28.9401 27.6397 29.6771L28.6003 27.9229C27.7062 27.4333 26.6847 26.3678 25.5721 24.5566L23.8679 25.6034ZM27.3966 28.1095C26.9849 28.5408 26.2776 28.9805 25.1783 29.3802L25.8617 31.2598C27.1091 30.8062 28.1351 30.2325 28.8434 29.4905L27.3966 28.1095ZM25.1523 29.39C24.0872 29.8112 23.1742 30 22.4 30V32C23.4925 32 24.6595 31.7355 25.8877 31.25L25.1523 29.39ZM22.4 30C20.7539 30 19.5474 29.5909 18.6783 28.8702L17.4017 30.4098C18.7193 31.5024 20.4194 32 22.4 32V30ZM18.6893 28.8794C17.8039 28.1237 16.8889 26.6 16.0246 24.1119L14.1354 24.7681C15.0311 27.3466 16.0894 29.2897 17.3907 30.4006L18.6893 28.8794ZM11.24 16.4C13.5409 16.4 15.469 15.808 16.8817 14.4916L15.5183 13.0284C14.5843 13.8987 13.2058 14.4 11.24 14.4V16.4ZM16.8735 14.4992C18.2164 13.2756 19 11.8521 19 10.24H17C17 11.1346 16.5836 12.0577 15.5265 13.0208L16.8735 14.4992ZM19 10.24C19 8.79522 18.5953 7.53148 17.6928 6.55955L16.2272 7.92045C16.7114 8.44185 17 9.17811 17 10.24H19ZM17.6928 6.55955C16.7641 5.55939 15.482 5.12 14 5.12V7.12C15.078 7.12 15.7693 7.42728 16.2272 7.92045L17.6928 6.55955ZM14 5.12C13.2158 5.12 12.4351 5.22571 11.66 5.43438L12.18 7.36561C12.7916 7.20096 13.3975 7.12 14 7.12V5.12ZM10.9337 6.23476C10.0769 11.3493 9.5507 14.2889 9.34815 15.1244L11.2919 15.5956C11.516 14.6711 12.0565 11.6374 12.9063 6.56523L10.9337 6.23476ZM10.1786 16.3499C10.4414 16.3875 10.8099 16.4 11.24 16.4V14.4C10.8168 14.4 10.5719 14.3858 10.4614 14.37L10.1786 16.3499ZM30.8559 29.56L30.0508 30.1532L30.0585 30.1634L30.8559 29.56ZM32.2559 8.16L33.2399 8.33814L33.2989 8.0126L33.152 7.71614L32.2559 8.16ZM30.1359 3.88L29.5933 3.04003L28.8438 3.52424L29.2398 4.32386L30.1359 3.88ZM41.2959 3.2L40.3258 3.44253L40.5204 4.22094L41.3225 4.19965L41.2959 3.2ZM52.5759 1.16L53.5478 0.924399L53.3028 -0.0860103L52.3027 0.198047L52.5759 1.16ZM50.7359 8.64L50.1312 7.84352L50.1241 7.84904L50.7359 8.64ZM40.7759 9.32L41.1759 8.40346L40.0134 7.89619L39.7914 9.14497L40.7759 9.32ZM39.6559 15.2L38.6746 15.0076L38.4809 15.9954L39.47 16.1826L39.6559 15.2ZM42.1759 15.48V16.48H42.2726L42.3674 16.4615L42.1759 15.48ZM45.7759 14.56L46.7353 14.2778L46.45 13.3078L45.4832 13.6038L45.7759 14.56ZM44.7359 19.24L45.3318 20.0431L45.3318 20.0431L44.7359 19.24ZM38.8159 19.8L39.0355 18.8244L38.0114 18.594L37.8308 19.628L38.8159 19.8ZM38.3759 24.56H37.3759V25.56H38.3759V24.56ZM44.8559 24.56V25.56H44.9279L44.9992 25.5497L44.8559 24.56ZM50.9759 23L51.9246 22.6838L51.5997 21.7091L50.6342 22.0602L50.9759 23ZM49.8159 29.16L49.02 28.5544L49.0118 28.5656L49.8159 29.16ZM42.2559 30.48L42.4612 29.5012L42.449 29.4988L42.2559 30.48ZM38.6159 29.88L38.7154 28.885L38.384 28.8518L38.0988 29.0241L38.6159 29.88ZM34.3359 30.04C32.9822 30.04 32.1608 29.6272 31.6533 28.9566L30.0585 30.1634C31.0444 31.4661 32.543 32.04 34.3359 32.04V30.04ZM31.661 28.9668C31.0946 28.1982 30.7359 26.9528 30.7359 25.08H28.7359C28.7359 27.1539 29.1239 28.8952 30.0509 30.1532L31.661 28.9668ZM30.7359 25.08C30.7359 24.1654 30.9336 22.3269 31.355 19.4973C31.7728 16.6921 32.4008 12.9736 33.2399 8.33814L31.2719 7.98186C30.4311 12.6264 29.799 16.3679 29.3768 19.2027C28.9583 22.0131 28.7359 23.9946 28.7359 25.08H30.7359ZM33.152 7.71614L31.032 3.43614L29.2398 4.32386L31.3598 8.60386L33.152 7.71614ZM30.6786 4.71997C33.5987 2.83352 36.1564 1.96 38.3759 1.96V-0.0400004C35.6355 -0.0400004 32.6999 1.03314 29.5933 3.04003L30.6786 4.71997ZM38.3759 1.96C39.0053 1.96 39.4092 2.1078 39.6773 2.31343C39.943 2.51729 40.1797 2.85804 40.3258 3.44253L42.2661 2.95746C42.0389 2.04862 41.6022 1.26937 40.8946 0.726568C40.1893 0.18553 39.3199 -0.0400004 38.3759 -0.0400004V1.96ZM41.3225 4.19965C44.452 4.11656 48.3012 3.41367 52.8492 2.12195L52.3027 0.198047C47.8373 1.46633 44.1666 2.12343 41.2694 2.20035L41.3225 4.19965ZM51.6041 1.3956C51.7999 2.20315 51.8959 2.99073 51.8959 3.76H53.8959C53.8959 2.82261 53.7787 1.87684 53.5478 0.924399L51.6041 1.3956ZM51.8959 3.76C51.8959 5.67569 51.2724 6.97713 50.1312 7.84355L51.3406 9.43644C53.0795 8.1162 53.8959 6.16431 53.8959 3.76H51.8959ZM50.1241 7.84904C48.9263 8.7756 47.3316 9.28 45.2559 9.28V11.28C47.6602 11.28 49.7189 10.6911 51.3478 9.43096L50.1241 7.84904ZM45.2559 9.28C43.8808 9.28 42.5232 8.99137 41.1759 8.40346L40.376 10.2365C41.962 10.9286 43.5911 11.28 45.2559 11.28V9.28ZM39.7914 9.14497C39.5797 10.3355 39.2079 12.288 38.6746 15.0076L40.6373 15.3924C41.1707 12.672 41.5455 10.7045 41.7605 9.49503L39.7914 9.14497ZM39.47 16.1826C40.4933 16.3762 41.3993 16.48 42.1759 16.48V14.48C41.5659 14.48 40.7919 14.3972 39.8418 14.2174L39.47 16.1826ZM42.3674 16.4615C43.5015 16.2402 44.7358 15.9242 46.0687 15.5162L45.4832 13.6038C44.2027 13.9958 43.037 14.2931 41.9844 14.4985L42.3674 16.4615ZM44.8166 14.8422C44.9063 15.1472 44.9759 15.7692 44.9759 16.8H46.9759C46.9759 15.7508 46.9123 14.8795 46.7353 14.2778L44.8166 14.8422ZM44.9759 16.8C44.9759 17.4909 44.7173 18.0087 44.1401 18.4369L45.3318 20.0431C46.408 19.2447 46.9759 18.1358 46.9759 16.8H44.9759ZM44.1401 18.4369C43.4877 18.9209 42.7637 19.16 41.9359 19.16V21.16C43.1881 21.16 44.3309 20.7857 45.3318 20.0431L44.1401 18.4369ZM41.9359 19.16C41.002 19.16 40.0357 19.0494 39.0355 18.8244L38.5964 20.7756C39.7295 21.0306 40.8432 21.16 41.9359 21.16V19.16ZM37.8308 19.628C37.529 21.357 37.3759 23.0016 37.3759 24.56H39.3759C39.3759 23.1318 39.5163 21.603 39.801 19.972L37.8308 19.628ZM38.3759 25.56H44.8559V23.56H38.3759V25.56ZM44.9992 25.5497C47.0979 25.2459 49.2043 24.7083 51.3177 23.9398L50.6342 22.0602C48.6409 22.785 46.6673 23.2874 44.7127 23.5703L44.9992 25.5497ZM50.0273 23.3162C50.1386 23.6503 50.2159 24.1818 50.2159 24.96H52.2159C52.2159 24.0849 52.1333 23.3097 51.9246 22.6838L50.0273 23.3162ZM50.2159 24.96C50.2159 26.3195 49.8181 27.5057 49.0201 28.5545L50.6118 29.7655C51.6805 28.3609 52.2159 26.7472 52.2159 24.96H50.2159ZM49.0118 28.5656C48.3078 29.518 47.35 30 46.0159 30V32C47.9352 32 49.5107 31.2553 50.6201 29.7544L49.0118 28.5656ZM46.0159 30C45.2697 30 44.0991 29.8447 42.4612 29.5013L42.0507 31.4587C43.7195 31.8086 45.0555 32 46.0159 32V30ZM42.449 29.4988C40.8166 29.1777 39.5648 28.9699 38.7154 28.885L38.5164 30.875C39.267 30.9501 40.442 31.1423 42.0629 31.4612L42.449 29.4988ZM38.0988 29.0241C36.9831 29.6982 35.7369 30.04 34.3359 30.04V32.04C36.0816 32.04 37.6888 31.6085 39.1331 30.7359L38.0988 29.0241ZM54.5016 12.04L55.4247 12.4246L55.4265 12.4201L54.5016 12.04ZM57.9016 6.64L57.1535 5.97638L57.1535 5.97638L57.9016 6.64ZM63.6216 2.6L64.0267 3.51425L64.0315 3.51211L63.6216 2.6ZM76.8616 2.4L76.3105 3.23449L76.3177 3.23915L76.8616 2.4ZM77.3816 10.16L78.0292 10.9219L78.0308 10.9206L77.3816 10.16ZM69.9416 10.64L69.4523 11.5121L69.4648 11.5192L69.4776 11.5258L69.9416 10.64ZM67.3016 8.04L68.1609 7.52852L67.6926 6.74185L66.8677 7.139L67.3016 8.04ZM63.5816 12.12L62.6919 11.6634L62.6919 11.6634L63.5816 12.12ZM63.0216 23.08L62.1474 23.5657L62.1521 23.574L63.0216 23.08ZM69.1016 22.96L68.3076 22.3519L68.2995 22.3627L69.1016 22.96ZM70.5416 18.44V17.44H69.5416V18.44H70.5416ZM76.3016 19.08L75.9528 20.0172L75.9598 20.0198L76.3016 19.08ZM74.4616 28.08L73.8316 27.3034L73.8316 27.3034L74.4616 28.08ZM56.6216 27.64L55.9102 28.3429L55.9145 28.3471L56.6216 27.64ZM54.3016 17.72C54.3016 15.9997 54.6696 14.2367 55.4246 12.4246L53.5785 11.6554C52.7335 13.6833 52.3016 15.707 52.3016 17.72H54.3016ZM55.4265 12.4201C56.1818 10.5823 57.2536 8.87728 58.6496 7.30361L57.1535 5.97638C55.6161 7.70939 54.4214 9.60435 53.5766 11.6599L55.4265 12.4201ZM58.6496 7.30361C60.0071 5.77335 61.79 4.50552 64.0267 3.51424L63.2164 1.68576C60.7598 2.77448 58.7293 4.19998 57.1535 5.97638L58.6496 7.30361ZM64.0315 3.51211C66.281 2.50112 68.5816 2 70.9416 2V-9.53674e-07C68.2882 -9.53674e-07 65.7088 0.565543 63.2116 1.68788L64.0315 3.51211ZM70.9416 2C73.3701 2 75.123 2.45026 76.3105 3.23446L77.4126 1.56553C75.7735 0.483066 73.5797 -9.53674e-07 70.9416 -9.53674e-07V2ZM76.3177 3.23915C77.4862 3.99656 78.0216 4.98081 78.0216 6.28H80.0216C80.0216 4.27253 79.1169 2.6701 77.4055 1.56084L76.3177 3.23915ZM78.0216 6.28C78.0216 7.6896 77.5684 8.6857 76.7323 9.39943L78.0308 10.9206C79.3814 9.76763 80.0216 8.17706 80.0216 6.28H78.0216ZM76.7339 9.39806C75.8461 10.1527 74.8485 10.52 73.7016 10.52V12.52C75.328 12.52 76.7836 11.9807 78.0292 10.9219L76.7339 9.39806ZM73.7016 10.52C72.4606 10.52 71.3689 10.2588 70.4056 9.75417L69.4776 11.5258C70.7542 12.1946 72.1692 12.52 73.7016 12.52V10.52ZM70.4308 9.76786C69.4965 9.24373 68.7416 8.50419 68.1609 7.52852L66.4423 8.55148C67.1948 9.81581 68.2 10.8096 69.4523 11.5121L70.4308 9.76786ZM66.8677 7.139C65.1635 7.95958 63.7903 9.52292 62.6919 11.6634L64.4713 12.5766C65.4528 10.6637 66.5597 9.50708 67.7354 8.941L66.8677 7.139ZM62.6919 11.6634C61.5874 13.8157 61.0216 16.0111 61.0216 18.24H63.0216C63.0216 16.3622 63.4957 14.4776 64.4713 12.5766L62.6919 11.6634ZM61.0216 18.24C61.0216 20.3614 61.3681 22.1629 62.1474 23.5656L63.8957 22.5944C63.3417 21.5971 63.0216 20.1719 63.0216 18.24H61.0216ZM62.1521 23.574C62.9748 25.022 64.2334 25.84 65.8616 25.84V23.84C65.0364 23.84 64.4016 23.4846 63.891 22.586L62.1521 23.574ZM65.8616 25.84C67.4889 25.84 68.8386 24.9874 69.9036 23.5573L68.2995 22.3627C67.4979 23.4393 66.6876 23.84 65.8616 23.84V25.84ZM69.8954 23.5681C71.0044 22.1202 71.5416 20.3932 71.5416 18.44H69.5416C69.5416 20.0068 69.1187 21.2931 68.3077 22.3519L69.8954 23.5681ZM70.5416 19.44C73.2243 19.44 74.9873 19.6579 75.9528 20.0172L76.6503 18.1428C75.3225 17.6487 73.2455 17.44 70.5416 17.44V19.44ZM75.9598 20.0198C76.3709 20.1693 76.6201 20.3794 76.7784 20.6277C76.9431 20.8859 77.0616 21.2684 77.0616 21.84H79.0616C79.0616 20.9983 78.8867 20.2141 78.4647 19.5523C78.0364 18.8806 77.4056 18.4174 76.6433 18.1402L75.9598 20.0198ZM77.0616 21.84C77.0616 23.6455 76.0951 25.4675 73.8316 27.3034L75.0915 28.8566C77.6281 26.7992 79.0616 24.4612 79.0616 21.84H77.0616ZM73.8316 27.3034C71.6396 29.0813 68.8605 30 65.4216 30V32C69.236 32 72.4835 30.972 75.0915 28.8566L73.8316 27.3034ZM65.4216 30C62.0184 30 59.3536 28.9578 57.3287 26.9329L55.9145 28.3471C58.3696 30.8022 61.5714 32 65.4216 32V30ZM57.3329 26.9371C55.3666 24.9471 54.3016 21.9341 54.3016 17.72H52.3016C52.3016 22.2525 53.4499 25.8529 55.9102 28.3429L57.3329 26.9371ZM100.006 19.32L100.996 19.4643L101.163 18.32H100.006V19.32ZM90.9663 19.32V18.32H90.1247L89.9809 19.1492L90.9663 19.32ZM91.6463 29.24L92.2463 30.04L92.9811 29.4889L92.4942 28.71L91.6463 29.24ZM82.9263 29.56L82.1211 30.1532L82.1288 30.1634L82.9263 29.56ZM84.3263 8.16L85.3103 8.33814L85.3692 8.0126L85.2223 7.71614L84.3263 8.16ZM82.2063 3.88L81.6636 3.04003L80.9141 3.52424L81.3102 4.32386L82.2063 3.88ZM91.8463 14.56L90.8643 14.3708L90.6352 15.56H91.8463V14.56ZM100.806 14.56V15.56H101.659L101.794 14.718L100.806 14.56ZM101.966 8.16L102.95 8.34209L103.01 8.0146L102.862 7.71614L101.966 8.16ZM99.8463 3.88L99.3036 3.04003L98.5541 3.52424L98.9502 4.32386L99.8463 3.88ZM109.606 13.96L108.625 13.7686L108.624 13.7724L109.606 13.96ZM109.286 29.24L109.886 30.04L110.621 29.4889L110.134 28.71L109.286 29.24ZM100.566 29.56L99.7611 30.1532L99.7688 30.1634L100.566 29.56ZM100.446 24.84C100.446 23.7991 100.623 22.022 100.996 19.4643L99.0167 19.1757C98.643 21.738 98.4463 23.6409 98.4463 24.84H100.446ZM100.006 18.32H90.9663V20.32H100.006V18.32ZM89.9809 19.1492C89.6357 21.1411 89.4463 22.5952 89.4463 23.44H91.4463C91.4463 22.7915 91.6035 21.4989 91.9516 19.4908L89.9809 19.1492ZM89.4463 23.44C89.4463 26.0961 89.8509 28.2542 90.7983 29.77L92.4942 28.71C91.8416 27.6658 91.4463 25.9573 91.4463 23.44H89.4463ZM91.0463 28.44C89.5916 29.531 88.131 30.04 86.6463 30.04V32.04C88.6282 32.04 90.5009 31.349 92.2463 30.04L91.0463 28.44ZM86.6463 30.04C85.0927 30.04 84.2131 29.6034 83.7237 28.9566L82.1288 30.1634C83.1327 31.49 84.7332 32.04 86.6463 32.04V30.04ZM83.7313 28.9668C83.1649 28.1982 82.8063 26.9528 82.8063 25.08H80.8063C80.8063 27.1539 81.1942 28.8952 82.1212 30.1532L83.7313 28.9668ZM82.8063 25.08C82.8063 24.1654 83.0039 22.3269 83.4253 19.4973C83.8431 16.6921 84.4711 12.9736 85.3103 8.33814L83.3422 7.98186C82.5014 12.6264 81.8694 16.3679 81.4472 19.2027C81.0286 22.0131 80.8063 23.9946 80.8063 25.08H82.8063ZM85.2223 7.71614L83.1023 3.43614L81.3102 4.32386L83.4302 8.60386L85.2223 7.71614ZM82.7489 4.71997C85.669 2.83352 88.2267 1.96 90.4463 1.96V-0.0400004C87.7058 -0.0400004 84.7702 1.03314 81.6636 3.04003L82.7489 4.71997ZM90.4463 1.96C91.2603 1.96 91.7083 2.19877 91.9827 2.53369C92.2883 2.90679 92.5263 3.57773 92.5263 4.72H94.5263C94.5263 3.3556 94.2509 2.14654 93.5298 1.26631C92.7775 0.3479 91.6856 -0.0400004 90.4463 -0.0400004V1.96ZM92.5263 4.72C92.5263 4.9879 92.4069 5.8942 92.1205 7.5717C91.8423 9.20136 91.4238 11.4667 90.8643 14.3708L92.8282 14.7492C93.3887 11.84 93.8102 9.55863 94.092 7.9083C94.3656 6.30579 94.5263 5.19876 94.5263 4.72H92.5263ZM91.8463 15.56H100.806V13.56H91.8463V15.56ZM101.794 14.718C101.898 14.0666 102.282 11.9489 102.95 8.34209L100.983 7.97791C100.318 11.5711 99.9279 13.72 99.8188 14.402L101.794 14.718ZM102.862 7.71614L100.742 3.43614L98.9502 4.32386L101.07 8.60386L102.862 7.71614ZM100.389 4.71997C103.309 2.83352 105.867 1.96 108.086 1.96V-0.0400004C105.346 -0.0400004 102.41 1.03314 99.3036 3.04003L100.389 4.71997ZM108.086 1.96C108.9 1.96 109.348 2.19877 109.623 2.53369C109.928 2.90679 110.166 3.57773 110.166 4.72H112.166C112.166 3.3556 111.891 2.14654 111.17 1.26631C110.418 0.3479 109.326 -0.0400004 108.086 -0.0400004V1.96ZM110.166 4.72C110.166 5.03134 110.055 5.91564 109.79 7.48352C109.532 9.01131 109.144 11.1051 108.625 13.7686L110.588 14.1514C111.108 11.4815 111.5 9.36869 111.762 7.81647C112.018 6.30436 112.166 5.23533 112.166 4.72H110.166ZM108.624 13.7724C108.117 16.4299 107.734 18.5575 107.479 20.1517C107.228 21.7153 107.086 22.8394 107.086 23.44H109.086C109.086 23.0273 109.198 22.0647 109.454 20.4683C109.705 18.9025 110.083 16.7968 110.589 14.1476L108.624 13.7724ZM107.086 23.44C107.086 26.0961 107.491 28.2542 108.438 29.77L110.134 28.71C109.482 27.6658 109.086 25.9573 109.086 23.44H107.086ZM108.686 28.44C107.232 29.531 105.771 30.04 104.286 30.04V32.04C106.268 32.04 108.141 31.349 109.886 30.04L108.686 28.44ZM104.286 30.04C102.733 30.04 101.853 29.6034 101.364 28.9566L99.7688 30.1634C100.773 31.49 102.373 32.04 104.286 32.04V30.04ZM101.371 28.9668C100.813 28.2084 100.446 26.8936 100.446 24.84H98.4463C98.4463 27.0531 98.8266 28.8849 99.7612 30.1532L101.371 28.9668ZM117.615 5.6L118.347 6.28095L118.35 6.27775L117.615 5.6ZM132.575 1.96L131.882 2.68139L131.897 2.6955L131.912 2.709L132.575 1.96ZM133.535 5.92L132.54 5.8205L132.301 8.20775L134.165 6.69675L133.535 5.92ZM140.975 6.92L140.187 7.53592L140.193 7.54386L140.2 7.55167L140.975 6.92ZM141.415 20.76L140.481 20.4017L140.481 20.4017L141.415 20.76ZM137.895 26.4L137.188 25.6929L137.181 25.6994L137.895 26.4ZM132.935 29.8L132.541 28.8808L132.536 28.8829L132.935 29.8ZM117.095 27.36L116.392 28.0709L116.396 28.0748L117.095 27.36ZM133.335 19.64L134.306 19.8788L134.426 19.3927L134.108 19.0057L133.335 19.64ZM132.375 7.12L133.184 7.70817L134.135 6.39961L132.539 6.13361L132.375 7.12ZM126.015 8.72L126.647 9.49468L126.652 9.49064L126.015 8.72ZM123.535 23L122.703 23.5547L122.703 23.5547L123.535 23ZM131.095 23.64L131.784 24.365L131.784 24.3646L131.095 23.64ZM114.375 17.76C114.375 12.8873 115.729 9.09702 118.347 6.28094L116.883 4.91906C113.848 8.18298 112.375 12.4994 112.375 17.76H114.375ZM118.35 6.27775C120.954 3.45296 124.534 2 129.215 2V-9.53674e-07C124.083 -9.53674e-07 119.929 1.61371 116.88 4.92225L118.35 6.27775ZM129.215 2C130.699 2 131.496 2.31027 131.882 2.68139L133.268 1.23861C132.321 0.329731 130.878 -9.53674e-07 129.215 -9.53674e-07V2ZM131.912 2.709C132.314 3.06457 132.615 3.69815 132.615 4.84H134.615C134.615 3.36852 134.222 2.08209 133.238 1.211L131.912 2.709ZM132.615 4.84C132.615 4.96904 132.594 5.28047 132.54 5.8205L134.53 6.0195C134.583 5.49286 134.615 5.0843 134.615 4.84H132.615ZM134.165 6.69675C134.985 6.03207 135.858 5.72 136.815 5.72V3.72C135.372 3.72 134.059 4.20792 132.905 5.14324L134.165 6.69675ZM136.815 5.72C138.087 5.72 139.199 6.27201 140.187 7.53592L141.763 6.30408C140.458 4.63465 138.796 3.72 136.815 3.72V5.72ZM140.2 7.55167C141.172 8.74529 141.735 10.5771 141.735 13.2H143.735C143.735 10.3296 143.124 7.97471 141.75 6.28833L140.2 7.55167ZM141.735 13.2C141.735 15.8386 141.313 18.2355 140.481 20.4017L142.349 21.1183C143.277 18.6979 143.735 16.0547 143.735 13.2H141.735ZM140.481 20.4017C139.642 22.588 138.539 24.3419 137.188 25.6929L138.602 27.1071C140.184 25.5248 141.428 23.5187 142.349 21.1183L140.481 20.4017ZM137.181 25.6994C135.832 27.0742 134.287 28.1328 132.541 28.8809L133.329 30.7191C135.317 29.8672 137.078 28.6591 138.609 27.1006L137.181 25.6994ZM132.536 28.8829C130.82 29.6292 129.049 30 127.215 30V32C129.328 32 131.37 31.5708 133.334 30.7171L132.536 28.8829ZM127.215 30C123.146 30 120.047 28.849 117.794 26.6452L116.396 28.0748C119.103 30.7244 122.75 32 127.215 32V30ZM117.798 26.6491C115.534 24.4089 114.375 21.4779 114.375 17.76H112.375C112.375 21.9355 113.696 25.4044 116.392 28.0709L117.798 26.6491ZM134.108 19.0057C132.529 17.0815 131.775 15.0606 131.775 12.92H129.775C129.775 15.5794 130.727 18.0385 132.562 20.2743L134.108 19.0057ZM131.775 12.92C131.775 10.6635 132.276 8.95621 133.184 7.70817L131.566 6.53183C130.341 8.21712 129.775 10.3765 129.775 12.92H131.775ZM132.539 6.13361C132.006 6.04467 131.471 6 130.935 6V8C131.359 8 131.784 8.03532 132.211 8.10639L132.539 6.13361ZM130.935 6C128.822 6 126.954 6.64627 125.378 7.94935L126.652 9.49064C127.85 8.50039 129.261 8 130.935 8V6ZM125.383 7.94534C122.506 10.2934 121.095 13.5546 121.095 17.6H123.095C123.095 14.0721 124.297 11.4133 126.647 9.49466L125.383 7.94534ZM121.095 17.6C121.095 19.9083 121.609 21.9139 122.703 23.5547L124.367 22.4453C123.541 21.2061 123.095 19.6117 123.095 17.6H121.095ZM122.703 23.5547C123.845 25.2682 125.488 26.16 127.535 26.16V24.16C126.168 24.16 125.145 23.6118 124.367 22.4453L122.703 23.5547ZM127.535 26.16C129.131 26.16 130.557 25.5308 131.784 24.365L130.406 22.915C129.5 23.7759 128.552 24.16 127.535 24.16V26.16ZM131.784 24.3646C133.031 23.1786 133.866 21.6698 134.306 19.8788L132.364 19.4012C132.004 20.8635 131.346 22.0214 130.406 22.9154L131.784 24.3646Z" fill="black"/>
</svg>
