<svg width="143" height="32" viewBox="0 0 143 32" fill="none" xmlns="http://www.w3.org/2000/svg">
<path d="M15.08 24.44L13.68 20.4C12.2933 20.4 10.8933 20.1867 9.48 19.76C9.18667 21.4667 9.04 22.6933 9.04 23.44C9.04 26.0267 9.44 27.96 10.24 29.24C8.64 30.44 6.97333 31.04 5.24 31.04C3.50667 31.04 2.26667 30.5467 1.52 29.56C0.773333 28.5467 0.4 27.0533 0.4 25.08C0.4 23.08 1.24 17.44 2.92 8.16L0.8 3.88C3.78667 1.96 6.53333 0.999999 9.04 0.999999C10.96 0.999999 12.44 1.4 13.48 2.2C15.48 1.4 17.28 0.999999 18.88 0.999999C21.3333 0.999999 23.28 1.82667 24.72 3.48C26.16 5.13333 26.88 7.12 26.88 9.44C26.88 11.1733 26.44 12.8533 25.56 14.48C24.68 16.08 23.3867 17.3867 21.68 18.4C22.5867 20.9867 23.6 23.2133 24.72 25.08C25.8667 26.9467 27 28.1867 28.12 28.8C27.56 29.3867 26.6933 29.8933 25.52 30.32C24.3733 30.7733 23.3333 31 22.4 31C20.5867 31 19.1333 30.5467 18.04 29.64C16.9467 28.7067 15.96 26.9733 15.08 24.44ZM11.24 15.4C13.3733 15.4 15.0267 14.8533 16.2 13.76C17.4 12.6667 18 11.4933 18 10.24C18 8.98667 17.6533 7.98667 16.96 7.24C16.2667 6.49333 15.28 6.12 14 6.12C13.3067 6.12 12.6133 6.21333 11.92 6.4C11.0667 11.4933 10.5333 14.48 10.32 15.36C10.5067 15.3867 10.8133 15.4 11.24 15.4ZM53.3016 17.72C53.3016 15.8533 53.7016 13.96 54.5016 12.04C55.3016 10.0933 56.4349 8.29333 57.9016 6.64C59.3682 4.98667 61.2749 3.64 63.6216 2.6C65.9949 1.53333 68.4349 0.999999 70.9416 0.999999C73.4749 0.999999 75.4482 1.46667 76.8616 2.4C78.3016 3.33333 79.0216 4.62667 79.0216 6.28C79.0216 7.93333 78.4749 9.22667 77.3816 10.16C76.3149 11.0667 75.0882 11.52 73.7016 11.52C72.3149 11.52 71.0616 11.2267 69.9416 10.64C68.8482 10.0267 67.9682 9.16 67.3016 8.04C65.8616 8.73333 64.6216 10.0933 63.5816 12.12C62.5416 14.1467 62.0216 16.1867 62.0216 18.24C62.0216 20.2667 62.3549 21.88 63.0216 23.08C63.6882 24.2533 64.6349 24.84 65.8616 24.84C67.0882 24.84 68.1682 24.2133 69.1016 22.96C70.0616 21.7067 70.5416 20.2 70.5416 18.44C73.2349 18.44 75.1549 18.6533 76.3016 19.08C77.4749 19.5067 78.0616 20.4267 78.0616 21.84C78.0616 24.0533 76.8616 26.1333 74.4616 28.08C72.0616 30.0267 69.0482 31 65.4216 31C61.7949 31 58.8616 29.88 56.6216 27.64C54.4082 25.4 53.3016 22.0933 53.3016 17.72ZM99.4463 24.84C99.4463 23.72 99.6329 21.88 100.006 19.32H90.9663C90.6196 21.32 90.4463 22.6933 90.4463 23.44C90.4463 26.0267 90.8463 27.96 91.6463 29.24C90.0463 30.44 88.3796 31.04 86.6463 31.04C84.9129 31.04 83.6729 30.5467 82.9263 29.56C82.1796 28.5467 81.8063 27.0533 81.8063 25.08C81.8063 23.08 82.6463 17.44 84.3263 8.16L82.2063 3.88C85.2196 1.93333 87.9663 0.96 90.4463 0.96C92.4996 0.96 93.5263 2.21333 93.5263 4.72C93.5263 5.46667 92.9663 8.74667 91.8463 14.56H100.806C100.913 13.8933 101.3 11.76 101.966 8.16L99.8463 3.88C102.86 1.93333 105.606 0.96 108.086 0.96C110.14 0.96 111.166 2.21333 111.166 4.72C111.166 5.54667 110.646 8.62667 109.606 13.96C108.593 19.2667 108.086 22.4267 108.086 23.44C108.086 26.0267 108.486 27.96 109.286 29.24C107.686 30.44 106.02 31.04 104.286 31.04C102.553 31.04 101.313 30.5467 100.566 29.56C99.8196 28.5467 99.4463 26.9733 99.4463 24.84ZM113.375 17.76C113.375 12.6933 114.788 8.64 117.615 5.6C120.442 2.53333 124.308 0.999999 129.215 0.999999C130.788 0.999999 131.908 1.32 132.575 1.96C133.268 2.57333 133.615 3.53333 133.615 4.84C133.615 5.02667 133.588 5.38666 133.535 5.92C134.522 5.12 135.615 4.72 136.815 4.72C138.442 4.72 139.828 5.45333 140.975 6.92C142.148 8.36 142.735 10.4533 142.735 13.2C142.735 15.9467 142.295 18.4667 141.415 20.76C140.535 23.0533 139.362 24.9333 137.895 26.4C136.455 27.8667 134.802 29 132.935 29.8C131.095 30.6 129.188 31 127.215 31C122.948 31 119.575 29.7867 117.095 27.36C114.615 24.9067 113.375 21.7067 113.375 17.76ZM133.335 19.64C131.628 17.56 130.775 15.32 130.775 12.92C130.775 10.52 131.308 8.58667 132.375 7.12C131.895 7.04 131.415 7 130.935 7C129.042 7 127.402 7.57333 126.015 8.72C123.402 10.8533 122.095 13.8133 122.095 17.6C122.095 19.76 122.575 21.56 123.535 23C124.495 24.44 125.828 25.16 127.535 25.16C128.842 25.16 130.028 24.6533 131.095 23.64C132.188 22.6 132.935 21.2667 133.335 19.64Z" fill="#F4F4F4"/>
<path d="M34.3359 31.04C32.7626 31.04 31.6026 30.5467 30.8559 29.56C30.1093 28.5467 29.7359 27.0533 29.7359 25.08C29.7359 23.08 30.5759 17.44 32.2559 8.16L30.1359 3.88C33.1493 1.93333 35.8959 0.96 38.3759 0.96C39.9493 0.96 40.9226 1.70667 41.2959 3.2C44.3093 3.12 48.0693 2.44 52.5759 1.16C52.7893 2.04 52.8959 2.90667 52.8959 3.76C52.8959 5.92 52.1759 7.54666 50.7359 8.64C49.3226 9.73333 47.4959 10.28 45.2559 10.28C43.7359 10.28 42.2426 9.96 40.7759 9.32C40.5626 10.52 40.1893 12.48 39.6559 15.2C40.6426 15.3867 41.4826 15.48 42.1759 15.48C43.2693 15.2667 44.4693 14.96 45.7759 14.56C45.9093 15.0133 45.9759 15.76 45.9759 16.8C45.9759 17.8133 45.5626 18.6267 44.7359 19.24C43.9093 19.8533 42.9759 20.16 41.9359 20.16C40.9226 20.16 39.8826 20.04 38.8159 19.8C38.5226 21.48 38.3759 23.0667 38.3759 24.56H44.8559C46.8826 24.2667 48.9226 23.7467 50.9759 23C51.1359 23.48 51.2159 24.1333 51.2159 24.96C51.2159 26.5333 50.7493 27.9333 49.8159 29.16C48.9093 30.3867 47.6426 31 46.0159 31C45.1626 31 43.9093 30.8267 42.2559 30.48C40.6293 30.16 39.4159 29.96 38.6159 29.88C37.3359 30.6533 35.9093 31.04 34.3359 31.04Z" fill="#BEFF8B"/>
</svg>
