<svg width="27" height="27" viewBox="0 0 27 27" fill="none" xmlns="http://www.w3.org/2000/svg">
<path d="M1 10.7222C1 11.999 1.25147 13.2632 1.74006 14.4428C2.22865 15.6223 2.94478 16.6941 3.84757 17.5969C4.75036 18.4997 5.82213 19.2158 7.00169 19.7044C8.18124 20.193 9.44548 20.4444 10.7222 20.4444C11.999 20.4444 13.2632 20.193 14.4428 19.7044C15.6223 19.2158 16.6941 18.4997 17.5969 17.5969C18.4997 16.6941 19.2158 15.6223 19.7044 14.4428C20.193 13.2632 20.4444 11.999 20.4444 10.7222C20.4444 9.44548 20.193 8.18124 19.7044 7.00169C19.2158 5.82213 18.4997 4.75036 17.5969 3.84757C16.6941 2.94478 15.6223 2.22865 14.4428 1.74006C13.2632 1.25147 11.999 1 10.7222 1C9.44548 1 8.18124 1.25147 7.00169 1.74006C5.82213 2.22865 4.75036 2.94478 3.84757 3.84757C2.94478 4.75036 2.22865 5.82213 1.74006 7.00169C1.25147 8.18124 1 9.44548 1 10.7222ZM26 26L17.6667 17.6667L26 26Z" fill="#1A1A1A"/>
<path d="M26 26L17.6667 17.6667M1 10.7222C1 11.999 1.25147 13.2632 1.74006 14.4428C2.22865 15.6223 2.94478 16.6941 3.84757 17.5969C4.75036 18.4997 5.82213 19.2158 7.00169 19.7044C8.18124 20.193 9.44548 20.4444 10.7222 20.4444C11.999 20.4444 13.2632 20.193 14.4428 19.7044C15.6223 19.2158 16.6941 18.4997 17.5969 17.5969C18.4997 16.6941 19.2158 15.6223 19.7044 14.4428C20.193 13.2632 20.4444 11.999 20.4444 10.7222C20.4444 9.44548 20.193 8.18124 19.7044 7.00169C19.2158 5.82213 18.4997 4.75036 17.5969 3.84757C16.6941 2.94478 15.6223 2.22865 14.4428 1.74006C13.2632 1.25147 11.999 1 10.7222 1C9.44548 1 8.18124 1.25147 7.00169 1.74006C5.82213 2.22865 4.75036 2.94478 3.84757 3.84757C2.94478 4.75036 2.22865 5.82213 1.74006 7.00169C1.25147 8.18124 1 9.44548 1 10.7222Z" stroke="#D9D9D9" stroke-width="2" stroke-linecap="round" stroke-linejoin="round"/>
</svg>
