<svg width="41" height="41" viewBox="0 0 41 41" fill="none" xmlns="http://www.w3.org/2000/svg">
<path d="M20.5 3.41675C11.0649 3.41675 3.41666 11.065 3.41666 20.5001C3.41666 29.9352 11.0649 37.5834 20.5 37.5834C29.9351 37.5834 37.5833 29.9352 37.5833 20.5001C37.5833 11.065 29.9351 3.41675 20.5 3.41675Z" stroke="black" stroke-width="2" stroke-linecap="round" stroke-linejoin="round"/>
<path d="M7.2963 31.3411C7.2963 31.3411 11.1042 26.4792 20.5 26.4792C29.8958 26.4792 33.7054 31.3411 33.7054 31.3411M20.5 20.5C21.8592 20.5 23.1628 19.96 24.1239 18.9989C25.0851 18.0378 25.625 16.7342 25.625 15.375C25.625 14.0158 25.0851 12.7122 24.1239 11.7511C23.1628 10.79 21.8592 10.25 20.5 10.25C19.1408 10.25 17.8372 10.79 16.8761 11.7511C15.915 12.7122 15.375 14.0158 15.375 15.375C15.375 16.7342 15.915 18.0378 16.8761 18.9989C17.8372 19.96 19.1408 20.5 20.5 20.5Z" stroke="black" stroke-width="2" stroke-linecap="round" stroke-linejoin="round"/>
</svg>
