<svg width="13" height="14" viewBox="0 0 13 14" fill="none" xmlns="http://www.w3.org/2000/svg">
<path d="M10.7314 7.45483L5.86224 12.1889C5.3281 12.7082 4.60364 13 3.84824 13C3.09284 13 2.36838 12.7082 1.83423 12.1889C1.30008 11.6696 1 10.9652 1 10.2308C1 9.49635 1.30008 8.79199 1.83423 8.27267L8.75857 1.54046C8.93494 1.36905 9.14432 1.23311 9.37473 1.14037C9.60515 1.04764 9.8521 0.999943 10.1015 1C10.3509 1.00006 10.5978 1.04787 10.8281 1.14071C11.0585 1.23354 11.2678 1.36959 11.4441 1.54107C11.6204 1.71256 11.7602 1.91612 11.8556 2.14014C11.951 2.36417 12.0001 2.60426 12 2.84672C11.9999 3.08918 11.9508 3.32925 11.8553 3.55323C11.7598 3.77721 11.6199 3.98071 11.4435 4.15211L4.51409 10.8892C4.33432 11.0568 4.09404 11.1484 3.84504 11.1453C3.59603 11.1422 3.35823 11.0442 3.18289 10.8722C3.00755 10.7003 2.90871 10.4683 2.90767 10.2262C2.90663 9.98405 3.00347 9.75123 3.17732 9.57788L8.12056 4.77179M4.51978 10.8831L4.51345 10.8892" stroke="white" stroke-linecap="round" stroke-linejoin="round"/>
</svg>
