<svg width="40" height="40" viewBox="0 0 40 40" fill="none" xmlns="http://www.w3.org/2000/svg">
<path d="M20 39.4208C20.1423 39.3361 20.3431 39.2146 20.5947 39.0577C21.1349 38.7206 21.9086 38.2199 22.8379 37.5682C24.6975 36.2642 27.1755 34.3587 29.6516 31.9527C34.6199 27.125 39.5 20.3612 39.5 12.4528C39.5 6.18276 34.8591 0.500032 29.3104 0.5L20 39.4208ZM20 39.4208C19.8577 39.3361 19.6569 39.2146 19.4053 39.0577C18.8651 38.7206 18.0914 38.2199 17.1621 37.5682C15.3025 36.2642 12.8245 34.3587 10.3484 31.9527C5.38011 27.125 0.5 20.3612 0.5 12.4528C0.5 6.18276 5.14091 0.500033 10.6896 0.5L20 39.4208ZM20 7.05685L19.5552 6.19057C17.7423 2.65971 14.3456 0.500366 10.6897 0.5L20 7.05685ZM20 7.05685L20.4448 6.19057M20 7.05685L20.4448 6.19057M20.4448 6.19057C22.2577 2.65972 25.6544 0.500368 29.3103 0.5L20.4448 6.19057Z" fill="#FF6767" stroke="#E53935"/>
</svg>
