<svg width="70" height="70" viewBox="0 0 70 70" fill="none" xmlns="http://www.w3.org/2000/svg">
<circle cx="35" cy="35" r="34.75" fill="#F3F3F3" stroke="#5D00D5" stroke-width="0.5"/>
<path d="M35 18.667C23.402 18.667 14 25.9781 14 35.0003C14 38.0803 15.11 40.9628 17.024 43.4221L14 51.3337L22.4195 48.0577C25.9295 50.1048 30.275 51.3337 35 51.3337C46.598 51.3337 56 44.0225 56 35.0003C56 25.9781 46.598 18.667 35 18.667ZM36.302 44.2357H33.347V41.2957H36.302V44.2357ZM36.158 39.1334H33.4925L33.2285 26.5583H36.3965L36.158 39.1334Z" fill="#5D00D5"/>
<rect x="32.665" y="25.666" width="7" height="21" fill="#5D00D5"/>
<path d="M31.7098 30.497V40H29.9883V32.1721H29.9326L27.7099 33.592V32.0143L30.0718 30.497H31.7098ZM35.1759 38.8585C34.8944 38.8585 34.6532 38.7595 34.4521 38.5616C34.251 38.3605 34.152 38.1192 34.1551 37.8377C34.152 37.5593 34.251 37.3211 34.4521 37.1231C34.6532 36.9251 34.8944 36.8261 35.1759 36.8261C35.4482 36.8261 35.6848 36.9251 35.8859 37.1231C36.0901 37.3211 36.1937 37.5593 36.1968 37.8377C36.1937 38.0264 36.1442 38.1981 36.0483 38.3527C35.9555 38.5074 35.8318 38.6312 35.6771 38.724C35.5255 38.8137 35.3585 38.8585 35.1759 38.8585ZM35.1759 34.1488C34.8944 34.1488 34.6532 34.0498 34.4521 33.8518C34.251 33.6507 34.152 33.4094 34.1551 33.1279C34.152 32.8495 34.251 32.6113 34.4521 32.4134C34.6532 32.2123 34.8944 32.1117 35.1759 32.1117C35.4482 32.1117 35.6848 32.2123 35.8859 32.4134C36.0901 32.6113 36.1937 32.8495 36.1968 33.1279C36.1937 33.3135 36.1442 33.4837 36.0483 33.6384C35.9555 33.793 35.8318 33.9168 35.6771 34.0096C35.5255 34.1024 35.3585 34.1488 35.1759 34.1488ZM41.7777 30.497V40H40.0562V32.1721H40.0005L37.7779 33.592V32.0143L40.1397 30.497H41.7777Z" fill="white"/>
</svg>
