<svg width="55" height="55" viewBox="0 0 55 55" fill="none" xmlns="http://www.w3.org/2000/svg">
<circle cx="27.5" cy="27.5" r="27.25" fill="#F3F3F3" stroke="#F543C4" stroke-width="0.5"/>
<path fill-rule="evenodd" clip-rule="evenodd" d="M15.3065 33.8427C15.6529 33.8427 15.9852 33.9684 16.2303 34.1921C16.4753 34.4158 16.6129 34.7192 16.6129 35.0356V38.2166C16.6129 38.4361 16.808 38.6142 17.0484 38.6142H37.9516C38.0671 38.6142 38.1779 38.5724 38.2595 38.4978C38.3412 38.4232 38.3871 38.3221 38.3871 38.2166V35.0356C38.3871 34.7192 38.5247 34.4158 38.7697 34.1921C39.0148 33.9684 39.3471 33.8427 39.6935 33.8427C40.04 33.8427 40.3723 33.9684 40.6173 34.1921C40.8624 34.4158 41 34.7192 41 35.0356V38.2166C41 38.9548 40.6788 39.6628 40.1071 40.1848C39.5355 40.7068 38.7601 41 37.9516 41H17.0484C16.2399 41 15.4645 40.7068 14.8929 40.1848C14.3212 39.6628 14 38.9548 14 38.2166V35.0356C14 34.7192 14.1376 34.4158 14.3827 34.1921C14.6277 33.9684 14.96 33.8427 15.3065 33.8427ZM25.3017 33.6471C24.8694 33.6474 24.4526 33.4998 24.1337 33.2333C23.8148 32.9668 23.6168 32.6009 23.5789 32.2077C23.312 29.4204 23.2654 26.6191 23.4395 23.8257C23.0091 23.8037 22.5788 23.7783 22.1488 23.7494L19.5533 23.576C19.3247 23.5607 19.1044 23.4915 18.9139 23.3751C18.7234 23.2588 18.5693 23.0992 18.4665 22.9122C18.3638 22.7251 18.3161 22.5169 18.3279 22.3079C18.3398 22.0989 18.4109 21.8963 18.5343 21.7199C20.384 19.0763 22.7675 16.778 25.5577 14.9475L26.5977 14.2652C26.8606 14.0928 27.1762 14 27.5 14C27.8238 14 28.1394 14.0928 28.4023 14.2652L29.4423 14.9491C32.2323 16.7791 34.6158 19.0769 36.4657 21.7199C36.5891 21.8963 36.6602 22.0989 36.6721 22.3079C36.6839 22.5169 36.6362 22.7251 36.5335 22.9122C36.4307 23.0992 36.2766 23.2588 36.0861 23.3751C35.8956 23.4915 35.6753 23.5607 35.4467 23.576L32.8512 23.7494C32.4227 23.778 31.9925 23.8035 31.5622 23.8241C31.7364 26.6187 31.6876 29.4195 31.4194 32.2061C31.3819 32.5993 31.1844 32.9654 30.8657 33.2322C30.5471 33.4989 30.1306 33.647 29.6983 33.6471H25.3017Z" fill="#F543C4"/>
</svg>
